<?xml version="1.0" standalone="no"?>
<!DOCTYPE svg PUBLIC "-//W3C//DTD SVG 20010904//EN"
 "http://www.w3.org/TR/2001/REC-SVG-20010904/DTD/svg10.dtd">
<svg version="1.0" xmlns="http://www.w3.org/2000/svg"
 width="472.000000pt" height="472.000000pt" viewBox="0 0 472.000000 472.000000"
 preserveAspectRatio="xMidYMid meet">
<metadata>
Created by potrace 1.14, written by Peter Selinger 2001-2017
</metadata>
<g transform="translate(0.000000,472.000000) scale(0.100000,-0.100000)"
fill="#000000" stroke="none">
<path d="M2130 4710 c-30 -4 -80 -11 -110 -14 -98 -13 -282 -57 -405 -98 -170
-56 -266 -100 -435 -196 -152 -86 -321 -213 -455 -342 -373 -357 -619 -829
-696 -1335 -6 -38 -13 -81 -16 -95 -9 -48 -10 -426 -1 -515 7 -70 41 -259 62
-350 12 -50 56 -181 93 -274 210 -533 614 -975 1128 -1235 148 -75 180 -89
325 -136 162 -53 334 -91 495 -107 138 -15 554 -6 584 11 4 2 29 6 56 10 113
13 368 86 519 149 145 59 380 195 511 296 193 148 407 370 513 535 15 23 29
43 32 46 10 8 116 191 143 245 80 160 161 396 197 575 40 197 48 291 44 515
-2 110 -5 213 -8 230 -3 16 -8 52 -11 80 -4 27 -16 91 -26 140 -11 50 -22 101
-25 115 -3 14 -21 72 -40 130 -128 379 -300 657 -578 936 -201 201 -388 335
-631 454 -185 90 -427 172 -580 196 -22 3 -42 7 -45 9 -3 2 -37 6 -75 10 -39
4 -74 10 -80 13 -14 9 -421 10 -485 2z"/>
</g>
</svg>
