<svg width="144" height="36" viewBox="0 0 144 36" fill="none" xmlns="http://www.w3.org/2000/svg">
<g filter="url(#filter0_d)">
<path d="M24.5094 19.4746C24.3102 22.2285 23.2906 24.3965 21.4508 25.9785C19.6227 27.5605 17.2086 28.3516 14.2086 28.3516C10.9273 28.3516 8.34336 27.25 6.45664 25.0469C4.58164 22.832 3.64414 19.7969 3.64414 15.9414V14.377C3.64414 11.916 4.07774 9.74805 4.94492 7.87305C5.81211 5.99805 7.04844 4.5625 8.65391 3.56641C10.2711 2.55859 12.1461 2.05469 14.2789 2.05469C17.232 2.05469 19.6109 2.8457 21.4156 4.42773C23.2203 6.00977 24.2633 8.23047 24.5445 11.0898H19.2711C19.1422 9.4375 18.6793 8.24219 17.8824 7.50391C17.0973 6.75391 15.8961 6.37891 14.2789 6.37891C12.5211 6.37891 11.2027 7.01172 10.3238 8.27734C9.45664 9.53125 9.01133 11.4824 8.98789 14.1309V16.0645C8.98789 18.8301 9.40391 20.8516 10.2359 22.1289C11.0797 23.4062 12.4039 24.0449 14.2086 24.0449C15.8375 24.0449 17.0504 23.6758 17.8473 22.9375C18.6559 22.1875 19.1188 21.0332 19.2359 19.4746H24.5094ZM30.0873 18.3145C30.0873 16.4277 30.4505 14.7461 31.1771 13.2695C31.9037 11.793 32.9466 10.6504 34.306 9.8418C35.6771 9.0332 37.265 8.62891 39.0697 8.62891C41.6361 8.62891 43.7279 9.41406 45.3451 10.9844C46.974 12.5547 47.8822 14.6875 48.0697 17.3828L48.1048 18.6836C48.1048 21.6016 47.2904 23.9453 45.6615 25.7148C44.0326 27.4727 41.847 28.3516 39.1048 28.3516C36.3627 28.3516 34.1712 27.4727 32.5306 25.7148C30.9017 23.957 30.0873 21.5664 30.0873 18.543V18.3145ZM35.1673 18.6836C35.1673 20.4883 35.5072 21.8711 36.1869 22.832C36.8666 23.7812 37.8392 24.2559 39.1048 24.2559C40.3353 24.2559 41.2962 23.7871 41.9877 22.8496C42.6791 21.9004 43.0248 20.3887 43.0248 18.3145C43.0248 16.5449 42.6791 15.1738 41.9877 14.2012C41.2962 13.2285 40.3236 12.7422 39.0697 12.7422C37.8275 12.7422 36.8666 13.2285 36.1869 14.2012C35.5072 15.1621 35.1673 16.6562 35.1673 18.6836Z" fill="#291B1B"/>
<path d="M60.0812 23.7637H71.2784V28H54.8077V2.40625H60.0812V23.7637ZM88.247 28C88.0126 27.543 87.8427 26.9746 87.7372 26.2949C86.5067 27.666 84.9071 28.3516 82.9384 28.3516C81.0751 28.3516 79.5282 27.8125 78.2977 26.7344C77.079 25.6562 76.4696 24.2969 76.4696 22.6562C76.4696 20.6406 77.2138 19.0938 78.702 18.0156C80.202 16.9375 82.3641 16.3926 85.1884 16.3809H87.5263V15.291C87.5263 14.4121 87.2977 13.709 86.8407 13.1816C86.3954 12.6543 85.6864 12.3906 84.7138 12.3906C83.8583 12.3906 83.1845 12.5957 82.6923 13.0059C82.2118 13.416 81.9716 13.9785 81.9716 14.6934H76.8915C76.8915 13.5918 77.2313 12.5723 77.911 11.6348C78.5907 10.6973 79.5516 9.96484 80.7938 9.4375C82.036 8.89844 83.4305 8.62891 84.9774 8.62891C87.3212 8.62891 89.1786 9.2207 90.5497 10.4043C91.9325 11.5762 92.6239 13.2285 92.6239 15.3613V23.6055C92.6356 25.4102 92.8876 26.7754 93.3798 27.7012V28H88.247ZM84.0458 24.4668C84.7958 24.4668 85.4872 24.3027 86.12 23.9746C86.7528 23.6348 87.2216 23.1836 87.5263 22.6211V19.3516H85.6278C83.0848 19.3516 81.7313 20.2305 81.5673 21.9883L81.5497 22.2871C81.5497 22.9199 81.7723 23.4414 82.2177 23.8516C82.663 24.2617 83.2723 24.4668 84.0458 24.4668ZM116.905 18.666C116.905 21.7129 116.255 24.0918 114.954 25.8027C113.653 27.502 111.837 28.3516 109.505 28.3516C107.442 28.3516 105.796 27.5605 104.565 25.9785L104.337 28H99.7663V1H104.846V10.6855C106.018 9.31445 107.559 8.62891 109.469 8.62891C111.79 8.62891 113.606 9.48438 114.919 11.1953C116.243 12.8945 116.905 15.291 116.905 18.3848V18.666ZM111.825 18.2969C111.825 16.375 111.52 14.9746 110.911 14.0957C110.301 13.2051 109.393 12.7598 108.186 12.7598C106.569 12.7598 105.456 13.4219 104.846 14.7461V22.252C105.467 23.5879 106.592 24.2559 108.221 24.2559C109.862 24.2559 110.94 23.4473 111.456 21.8301C111.702 21.0566 111.825 19.8789 111.825 18.2969ZM133.592 22.7441C133.592 22.123 133.282 21.6367 132.661 21.2852C132.051 20.9219 131.067 20.5996 129.707 20.3184C125.184 19.3691 122.922 17.4473 122.922 14.5527C122.922 12.8652 123.62 11.459 125.014 10.334C126.42 9.19727 128.254 8.62891 130.516 8.62891C132.93 8.62891 134.858 9.19727 136.299 10.334C137.752 11.4707 138.479 12.9473 138.479 14.7637H133.399C133.399 14.0371 133.164 13.4395 132.696 12.9707C132.227 12.4902 131.495 12.25 130.498 12.25C129.643 12.25 128.981 12.4434 128.512 12.8301C128.043 13.2168 127.809 13.709 127.809 14.3066C127.809 14.8691 128.073 15.3262 128.6 15.6777C129.139 16.0176 130.041 16.3164 131.307 16.5742C132.573 16.8203 133.639 17.1016 134.506 17.418C137.19 18.4023 138.532 20.1074 138.532 22.5332C138.532 24.2676 137.788 25.6738 136.299 26.752C134.811 27.8184 132.889 28.3516 130.534 28.3516C128.94 28.3516 127.522 28.0703 126.28 27.5078C125.049 26.9336 124.082 26.1543 123.379 25.1699C122.676 24.1738 122.325 23.1016 122.325 21.9531H127.141C127.188 22.8555 127.522 23.5469 128.143 24.0273C128.764 24.5078 129.596 24.748 130.639 24.748C131.612 24.748 132.344 24.5664 132.836 24.2031C133.34 23.8281 133.592 23.3418 133.592 22.7441Z" fill="#4EAAFF"/>
</g>
<defs>
<filter id="filter0_d" x="0.644165" y="0" width="142.888" height="35.3516" filterUnits="userSpaceOnUse" color-interpolation-filters="sRGB">
<feFlood flood-opacity="0" result="BackgroundImageFix"/>
<feColorMatrix in="SourceAlpha" type="matrix" values="0 0 0 0 0 0 0 0 0 0 0 0 0 0 0 0 0 0 127 0"/>
<feOffset dx="1" dy="3"/>
<feGaussianBlur stdDeviation="2"/>
<feColorMatrix type="matrix" values="0 0 0 0 0.595833 0 0 0 0 0.593351 0 0 0 0 0.593351 0 0 0 1 0"/>
<feBlend mode="normal" in2="BackgroundImageFix" result="effect1_dropShadow"/>
<feBlend mode="normal" in="SourceGraphic" in2="effect1_dropShadow" result="shape"/>
</filter>
</defs>
</svg>
